STARTFONT 2.1
FONT -FontForge-IBM Plex Mono Light-Light-I-Normal--25-240-75-75-M-150-ISO10646-1
SIZE 24 75 75
FONTBOUNDINGBOX 17 25 -1 -5
COMMENT "Generated by fontforge, http://fontforge.sourceforge.net"
COMMENT "Copyright 2017 IBM Corp. All rights reserved."
STARTPROPERTIES 41
FOUNDRY "FontForge"
FAMILY_NAME "IBM Plex Mono Light"
WEIGHT_NAME "Light"
SLANT "I"
SETWIDTH_NAME "Normal"
ADD_STYLE_NAME ""
PIXEL_SIZE 25
POINT_SIZE 240
RESOLUTION_X 75
RESOLUTION_Y 75
SPACING "M"
AVERAGE_WIDTH 150
CHARSET_REGISTRY "ISO10646"
CHARSET_ENCODING "1"
FONTNAME_REGISTRY ""
CHARSET_COLLECTIONS "ISO10646-1"
FONT_NAME "IBMPlexMono-LightItalic"
FACE_NAME "IBM Plex Mono Light Italic"
COPYRIGHT "Copyright 2017 IBM Corp. All rights reserved."
FONT_VERSION "2.1"
FONT_ASCENT 20
FONT_DESCENT 5
UNDERLINE_POSITION -4
UNDERLINE_THICKNESS 2
X_HEIGHT 12
CAP_HEIGHT 16
RAW_ASCENT 780
RAW_DESCENT 220
ITALIC_ANGLE 5184
NORM_SPACE 15
RELATIVE_WEIGHT 30
RELATIVE_SETWIDTH 50
SUPERSCRIPT_X 1
SUPERSCRIPT_Y 8
SUPERSCRIPT_SIZE 15
SUBSCRIPT_X 0
SUBSCRIPT_Y 1
SUBSCRIPT_SIZE 15
FIGURE_WIDTH 15
AVG_LOWERCASE_WIDTH 150
AVG_UPPERCASE_WIDTH 150
ENDPROPERTIES
CHARS 95
STARTCHAR space
ENCODING 32
SWIDTH 600 0
DWIDTH 15 0
BBX 1 1 0 0
BITMAP
00
ENDCHAR
STARTCHAR exclam
ENCODING 33
SWIDTH 600 0
DWIDTH 15 0
BBX 5 17 5 0
BITMAP
18
18
18
10
10
10
30
30
20
20
20
00
00
00
60
E0
E0
ENDCHAR
STARTCHAR quotedbl
ENCODING 34
SWIDTH 600 0
DWIDTH 15 0
BBX 6 7 6 12
BITMAP
44
44
CC
CC
C8
88
88
ENDCHAR
STARTCHAR numbersign
ENCODING 35
SWIDTH 600 0
DWIDTH 15 0
BBX 15 17 0 0
BITMAP
008C
0188
0108
0118
0310
0210
3E3E
0620
0460
0440
FC7C
08C0
1880
1880
1180
3100
3300
ENDCHAR
STARTCHAR dollar
ENCODING 36
SWIDTH 600 0
DWIDTH 15 0
BBX 13 23 1 -3
BITMAP
0080
0080
0080
07E0
19B8
3108
2100
2100
2100
3100
1F00
07C0
0260
0230
0210
0210
8430
C420
64E0
3F80
0400
0C00
0800
ENDCHAR
STARTCHAR percent
ENCODING 37
SWIDTH 600 0
DWIDTH 15 0
BBX 17 17 -1 0
BITMAP
078080
08C100
104300
104600
104400
10C800
109800
0F1000
000000
023C00
064600
0C8200
088200
108200
308600
208C00
C07800
ENDCHAR
STARTCHAR ampersand
ENCODING 38
SWIDTH 600 0
DWIDTH 15 0
BBX 15 17 0 0
BITMAP
03C0
0420
0830
0810
0810
0830
0C20
0460
3F80
6300
4100
C180
C080
C146
C144
6228
3C30
ENDCHAR
STARTCHAR quotesingle
ENCODING 39
SWIDTH 600 0
DWIDTH 15 0
BBX 2 7 8 12
BITMAP
40
40
C0
C0
80
80
80
ENDCHAR
STARTCHAR parenleft
ENCODING 40
SWIDTH 600 0
DWIDTH 15 0
BBX 9 22 5 -3
BITMAP
0180
0200
0400
0800
1000
1000
2000
2000
4000
4000
4000
4000
C000
C000
4000
4000
4000
4000
2000
2000
1000
0800
ENDCHAR
STARTCHAR parenright
ENCODING 41
SWIDTH 600 0
DWIDTH 15 0
BBX 9 22 1 -3
BITMAP
0C00
0600
0200
0100
0100
0180
0080
0080
0080
0080
0080
0180
0180
0100
0100
0200
0200
0400
0C00
1800
3000
E000
ENDCHAR
STARTCHAR asterisk
ENCODING 42
SWIDTH 600 0
DWIDTH 15 0
BBX 13 12 1 2
BITMAP
0100
0100
0100
0300
4318
FAF0
0F80
0700
0D00
1880
30C0
6040
ENDCHAR
STARTCHAR plus
ENCODING 43
SWIDTH 600 0
DWIDTH 15 0
BBX 12 11 2 2
BITMAP
0200
0200
0200
0600
0600
FFF0
0400
0400
0C00
0C00
0C00
ENDCHAR
STARTCHAR comma
ENCODING 44
SWIDTH 600 0
DWIDTH 15 0
BBX 4 7 4 -4
BITMAP
30
30
60
60
40
C0
80
ENDCHAR
STARTCHAR hyphen
ENCODING 45
SWIDTH 600 0
DWIDTH 15 0
BBX 7 1 4 7
BITMAP
FE
ENDCHAR
STARTCHAR period
ENCODING 46
SWIDTH 600 0
DWIDTH 15 0
BBX 3 3 5 0
BITMAP
60
E0
E0
ENDCHAR
STARTCHAR slash
ENCODING 47
SWIDTH 600 0
DWIDTH 15 0
BBX 14 22 1 -3
BITMAP
000C
0018
0010
0030
0020
0060
0040
0080
0180
0100
0300
0200
0400
0400
0800
1800
1000
3000
2000
4000
4000
8000
ENDCHAR
STARTCHAR zero
ENCODING 48
SWIDTH 600 0
DWIDTH 15 0
BBX 12 17 2 0
BITMAP
07C0
1860
3030
6030
4010
4010
C010
C630
8630
8030
8020
8020
8060
8040
C0C0
6180
3E00
ENDCHAR
STARTCHAR one
ENCODING 49
SWIDTH 600 0
DWIDTH 15 0
BBX 12 17 1 0
BITMAP
01C0
0680
0C80
1880
2180
0180
0180
0100
0100
0100
0300
0300
0300
0200
0200
0200
FFF0
ENDCHAR
STARTCHAR two
ENCODING 50
SWIDTH 600 0
DWIDTH 15 0
BBX 13 17 1 0
BITMAP
07C0
1C30
1010
3018
0018
0010
0030
0020
0060
00C0
0100
0600
0C00
1800
7000
C000
FFE0
ENDCHAR
STARTCHAR three
ENCODING 51
SWIDTH 600 0
DWIDTH 15 0
BBX 13 17 1 0
BITMAP
07C0
1C30
3010
0018
0010
0010
0030
0060
0F80
00C0
0020
0020
0020
0020
C060
60C0
3F00
ENDCHAR
STARTCHAR four
ENCODING 52
SWIDTH 600 0
DWIDTH 15 0
BBX 13 17 1 0
BITMAP
0030
0070
00B0
01A0
0320
0620
0C20
1860
1060
2040
4040
C040
FFF8
00C0
00C0
0080
0080
ENDCHAR
STARTCHAR five
ENCODING 53
SWIDTH 600 0
DWIDTH 15 0
BBX 13 17 1 0
BITMAP
0FF8
0800
1800
1000
1000
1000
3000
37C0
2860
3030
0030
0030
0030
0020
C060
60C0
1F00
ENDCHAR
STARTCHAR six
ENCODING 54
SWIDTH 600 0
DWIDTH 15 0
BBX 11 17 2 0
BITMAP
01C0
0300
0600
0C00
1800
3000
6000
4F80
D0C0
E060
C020
8020
8060
8060
C0C0
6180
3E00
ENDCHAR
STARTCHAR seven
ENCODING 55
SWIDTH 600 0
DWIDTH 15 0
BBX 12 17 3 0
BITMAP
FFF0
C030
8060
8040
80C0
0180
0100
0300
0200
0600
0C00
0800
1800
1000
3000
6000
C000
ENDCHAR
STARTCHAR eight
ENCODING 56
SWIDTH 600 0
DWIDTH 15 0
BBX 13 17 1 0
BITMAP
07E0
0C30
1018
3008
3018
3018
3010
1820
07C0
3860
6030
4010
C010
C030
C020
60E0
1F80
ENDCHAR
STARTCHAR nine
ENCODING 57
SWIDTH 600 0
DWIDTH 15 0
BBX 12 17 2 0
BITMAP
0F80
3060
6020
4030
4030
C030
C030
4060
60A0
1F60
0040
00C0
0180
0300
0600
0C00
7000
ENDCHAR
STARTCHAR colon
ENCODING 58
SWIDTH 600 0
DWIDTH 15 0
BBX 5 14 5 0
BITMAP
38
38
30
00
00
00
00
00
00
00
00
60
E0
E0
ENDCHAR
STARTCHAR semicolon
ENCODING 59
SWIDTH 600 0
DWIDTH 15 0
BBX 6 18 4 -4
BITMAP
1C
1C
18
00
00
00
00
00
00
00
00
30
30
60
60
40
C0
80
ENDCHAR
STARTCHAR less
ENCODING 60
SWIDTH 600 0
DWIDTH 15 0
BBX 12 14 2 1
BITMAP
0010
0070
00C0
0300
0C00
3800
E000
C000
7000
1800
0600
0300
00C0
0040
ENDCHAR
STARTCHAR equal
ENCODING 61
SWIDTH 600 0
DWIDTH 15 0
BBX 13 6 1 5
BITMAP
7FF8
0000
0000
0000
0000
FFF0
ENDCHAR
STARTCHAR greater
ENCODING 62
SWIDTH 600 0
DWIDTH 15 0
BBX 12 14 1 1
BITMAP
2000
3800
0C00
0300
0180
0060
0030
0030
00C0
0380
0E00
3800
E000
8000
ENDCHAR
STARTCHAR question
ENCODING 63
SWIDTH 600 0
DWIDTH 15 0
BBX 11 17 3 0
BITMAP
1F80
30C0
6060
C060
0060
0040
00C0
0F00
0800
1800
1800
0000
0000
0000
3000
3800
3000
ENDCHAR
STARTCHAR at
ENCODING 64
SWIDTH 600 0
DWIDTH 15 0
BBX 12 20 2 -3
BITMAP
07C0
1860
3020
2030
6010
43B0
4470
CC20
C820
8820
8820
9860
8860
88C0
8F40
8000
8000
C000
6000
3F00
ENDCHAR
STARTCHAR A
ENCODING 65
SWIDTH 600 0
DWIDTH 15 0
BBX 13 17 0 0
BITMAP
00C0
00E0
01E0
0160
0320
0220
0620
0430
0C30
0830
1830
1FF0
3010
2010
6018
4018
C018
ENDCHAR
STARTCHAR B
ENCODING 66
SWIDTH 600 0
DWIDTH 15 0
BBX 13 17 1 0
BITMAP
1FE0
1030
1010
1018
3018
3010
3030
2020
3FC0
2060
6030
6010
6030
4030
4020
4060
FF80
ENDCHAR
STARTCHAR C
ENCODING 67
SWIDTH 600 0
DWIDTH 15 0
BBX 12 17 2 0
BITMAP
07C0
0820
1030
2010
6000
6000
4000
C000
C000
C000
C000
C000
C040
C060
40C0
6180
1F00
ENDCHAR
STARTCHAR D
ENCODING 68
SWIDTH 600 0
DWIDTH 15 0
BBX 13 17 1 0
BITMAP
1FC0
1830
1010
1018
1018
3008
3018
3018
2018
2018
2010
6010
6030
6020
4060
40C0
FF00
ENDCHAR
STARTCHAR E
ENCODING 69
SWIDTH 600 0
DWIDTH 15 0
BBX 14 17 1 0
BITMAP
1FFC
1000
1000
1000
3000
3000
3000
2000
3FF0
2000
6000
6000
6000
4000
4000
4000
FFE0
ENDCHAR
STARTCHAR F
ENCODING 70
SWIDTH 600 0
DWIDTH 15 0
BBX 14 17 1 0
BITMAP
1FFC
1000
1000
1000
3000
3000
3000
2000
3FF0
2000
6000
6000
6000
4000
4000
4000
C000
ENDCHAR
STARTCHAR G
ENCODING 71
SWIDTH 600 0
DWIDTH 15 0
BBX 12 17 2 0
BITMAP
07C0
1860
3030
2010
6000
4000
C000
C000
C000
C3E0
8020
8060
8060
C060
C0C0
6140
3E40
ENDCHAR
STARTCHAR H
ENCODING 72
SWIDTH 600 0
DWIDTH 15 0
BBX 14 17 1 0
BITMAP
180C
1008
1008
3008
3018
3018
2018
2010
3FF0
6010
6030
6030
4030
4020
4020
C020
C060
ENDCHAR
STARTCHAR I
ENCODING 73
SWIDTH 600 0
DWIDTH 15 0
BBX 14 17 1 0
BITMAP
1FFC
0180
0180
0100
0100
0100
0300
0300
0300
0200
0200
0200
0600
0600
0600
0400
FFE0
ENDCHAR
STARTCHAR J
ENCODING 74
SWIDTH 600 0
DWIDTH 15 0
BBX 12 17 2 0
BITMAP
1FF0
0020
0020
0020
0060
0060
0060
0040
0040
0040
00C0
00C0
0080
8080
8180
C300
7E00
ENDCHAR
STARTCHAR K
ENCODING 75
SWIDTH 600 0
DWIDTH 15 0
BBX 15 17 1 0
BITMAP
180E
1018
1030
1060
30C0
3180
3300
2600
2F00
3900
7180
6080
60C0
4040
4060
4020
C030
ENDCHAR
STARTCHAR L
ENCODING 76
SWIDTH 600 0
DWIDTH 15 0
BBX 10 17 2 0
BITMAP
1800
1000
1000
3000
3000
3000
3000
2000
2000
6000
6000
6000
6000
4000
4000
C000
FFC0
ENDCHAR
STARTCHAR M
ENCODING 77
SWIDTH 600 0
DWIDTH 15 0
BBX 14 17 1 0
BITMAP
180C
381C
383C
2828
2C68
2448
2498
6798
6310
4310
4210
4410
4030
C030
C020
8020
8020
ENDCHAR
STARTCHAR N
ENCODING 78
SWIDTH 600 0
DWIDTH 15 0
BBX 14 17 1 0
BITMAP
180C
1C08
1C08
3408
3418
2618
2218
2210
2310
6310
6130
4130
41B0
40A0
40A0
C0E0
C0E0
ENDCHAR
STARTCHAR O
ENCODING 79
SWIDTH 600 0
DWIDTH 15 0
BBX 12 17 2 0
BITMAP
07C0
1860
3030
6030
4010
4010
C010
C030
8030
8030
8020
8020
8060
8040
C0C0
6180
3E00
ENDCHAR
STARTCHAR P
ENCODING 80
SWIDTH 600 0
DWIDTH 15 0
BBX 13 17 1 0
BITMAP
1FF0
1018
1008
1008
3008
3008
3018
2030
3FE0
2000
6000
6000
6000
4000
4000
4000
C000
ENDCHAR
STARTCHAR Q
ENCODING 81
SWIDTH 600 0
DWIDTH 15 0
BBX 12 21 2 -4
BITMAP
07C0
1860
3030
2030
4010
4010
C010
C030
8030
8030
8020
8020
8060
8040
C0C0
6180
3E00
0C00
0620
02C0
0180
ENDCHAR
STARTCHAR R
ENCODING 82
SWIDTH 600 0
DWIDTH 15 0
BBX 13 17 1 0
BITMAP
1FF0
1018
1008
1008
3008
3008
3018
2030
3FE0
2100
6180
6180
6080
40C0
4040
4060
C060
ENDCHAR
STARTCHAR S
ENCODING 83
SWIDTH 600 0
DWIDTH 15 0
BBX 13 17 1 0
BITMAP
07E0
1838
3008
2000
2000
2000
3000
1C00
07C0
0060
0030
0030
0010
8030
C020
60C0
3F80
ENDCHAR
STARTCHAR T
ENCODING 84
SWIDTH 600 0
DWIDTH 15 0
BBX 14 17 2 0
BITMAP
7FFC
8300
0300
0200
0200
0200
0600
0600
0600
0400
0400
0400
0C00
0C00
0C00
0800
0800
ENDCHAR
STARTCHAR U
ENCODING 85
SWIDTH 600 0
DWIDTH 15 0
BBX 13 17 2 0
BITMAP
3018
2010
2010
6010
6030
6030
4030
4020
4020
C020
C060
C060
8040
8040
C0C0
4180
3E00
ENDCHAR
STARTCHAR V
ENCODING 86
SWIDTH 600 0
DWIDTH 15 0
BBX 13 17 3 0
BITMAP
8018
C030
C020
C060
4060
40C0
40C0
4080
6180
6100
6300
2200
2600
2400
2C00
3800
3800
ENDCHAR
STARTCHAR W
ENCODING 87
SWIDTH 600 0
DWIDTH 15 0
BBX 15 17 1 0
BITMAP
2006
2004
2004
200C
210C
6308
6308
6798
4598
4490
4890
48B0
58A0
50A0
70A0
60E0
E0C0
ENDCHAR
STARTCHAR X
ENCODING 88
SWIDTH 600 0
DWIDTH 15 0
BBX 16 17 0 0
BITMAP
1803
0806
0C0C
0418
0630
0220
0340
01C0
0180
0380
06C0
0C40
0860
1020
3030
6010
C018
ENDCHAR
STARTCHAR Y
ENCODING 89
SWIDTH 600 0
DWIDTH 15 0
BBX 14 17 2 0
BITMAP
C00C
6018
6010
2030
3060
10C0
1880
0980
0F00
0E00
0400
0400
0C00
0C00
0C00
0800
0800
ENDCHAR
STARTCHAR Z
ENCODING 90
SWIDTH 600 0
DWIDTH 15 0
BBX 15 17 0 0
BITMAP
1FFE
0006
000C
0018
0030
0060
0040
0080
0180
0300
0600
0C00
1800
3000
2000
4000
FFF8
ENDCHAR
STARTCHAR bracketleft
ENCODING 91
SWIDTH 600 0
DWIDTH 15 0
BBX 11 22 4 -3
BITMAP
0FE0
0800
0800
0800
1800
1000
1000
1000
1000
3000
3000
2000
2000
2000
2000
6000
6000
4000
4000
4000
4000
FE00
ENDCHAR
STARTCHAR backslash
ENCODING 92
SWIDTH 600 0
DWIDTH 15 0
BBX 6 22 5 -3
BITMAP
80
80
80
40
40
40
40
60
20
20
20
30
10
10
10
10
08
08
08
08
0C
04
ENDCHAR
STARTCHAR bracketright
ENCODING 93
SWIDTH 600 0
DWIDTH 15 0
BBX 11 22 0 -3
BITMAP
0FE0
0040
0040
0040
0040
0040
00C0
0080
0080
0080
0080
0080
0180
0100
0100
0100
0100
0100
0300
0200
0200
FE00
ENDCHAR
STARTCHAR asciicircum
ENCODING 94
SWIDTH 600 0
DWIDTH 15 0
BBX 12 10 2 7
BITMAP
0300
0780
0480
0CC0
1840
1040
2060
6020
C030
8010
ENDCHAR
STARTCHAR underscore
ENCODING 95
SWIDTH 600 0
DWIDTH 15 0
BBX 12 1 0 -4
BITMAP
FFF0
ENDCHAR
STARTCHAR grave
ENCODING 96
SWIDTH 600 0
DWIDTH 15 0
BBX 3 5 6 15
BITMAP
80
C0
40
40
20
ENDCHAR
STARTCHAR a
ENCODING 97
SWIDTH 600 0
DWIDTH 15 0
BBX 11 13 2 0
BITMAP
1F20
30A0
6060
4060
C060
8060
8040
8040
80C0
80C0
81C0
C2C0
7C80
ENDCHAR
STARTCHAR b
ENCODING 98
SWIDTH 600 0
DWIDTH 15 0
BBX 11 19 2 0
BITMAP
1000
3000
3000
3000
2000
2000
2780
6860
7020
6020
6020
4020
4020
C020
C060
C040
C0C0
A180
9F00
ENDCHAR
STARTCHAR c
ENCODING 99
SWIDTH 600 0
DWIDTH 15 0
BBX 11 13 2 0
BITMAP
0F80
30C0
6060
4000
C000
C000
C000
8000
8000
8040
C0C0
6180
3E00
ENDCHAR
STARTCHAR d
ENCODING 100
SWIDTH 600 0
DWIDTH 15 0
BBX 12 19 2 0
BITMAP
0010
0010
0010
0030
0030
0020
1F20
30A0
6060
4060
C060
8040
8040
8040
80C0
80C0
81C0
C2C0
7C80
ENDCHAR
STARTCHAR e
ENCODING 101
SWIDTH 600 0
DWIDTH 15 0
BBX 11 13 2 0
BITMAP
0F80
1060
2020
4020
C060
C380
FE00
8000
8000
C060
C0C0
6180
3E00
ENDCHAR
STARTCHAR f
ENCODING 102
SWIDTH 600 0
DWIDTH 15 0
BBX 16 24 0 -5
BITMAP
007F
0040
0040
00C0
00C0
00C0
1FFE
0080
0080
0180
0180
0180
0100
0100
0100
0300
0300
0300
0200
8200
4200
2600
1600
0C00
ENDCHAR
STARTCHAR g
ENCODING 103
SWIDTH 600 0
DWIDTH 15 0
BBX 12 18 1 -5
BITMAP
0F90
1850
3030
2030
6030
4020
4020
4020
4060
4060
40E0
6140
1E40
0040
00C0
0080
C180
7E00
ENDCHAR
STARTCHAR h
ENCODING 104
SWIDTH 600 0
DWIDTH 15 0
BBX 11 19 2 0
BITMAP
1000
1000
3000
3000
3000
2000
2780
28C0
7060
6060
6060
4060
4040
4040
C040
C0C0
C0C0
80C0
8080
ENDCHAR
STARTCHAR i
ENCODING 105
SWIDTH 600 0
DWIDTH 15 0
BBX 11 19 2 0
BITMAP
0300
0700
0000
0000
0000
0000
FE00
0400
0400
0400
0C00
0C00
0800
0800
0860
18C0
1900
1600
1C00
ENDCHAR
STARTCHAR j
ENCODING 106
SWIDTH 600 0
DWIDTH 15 0
BBX 11 24 2 -5
BITMAP
0060
0060
0000
0000
0000
0000
3FC0
00C0
0080
0080
0080
0180
0180
0180
0100
0100
0100
0300
0300
C300
6200
3200
1A00
0E00
ENDCHAR
STARTCHAR k
ENCODING 107
SWIDTH 600 0
DWIDTH 15 0
BBX 12 19 2 0
BITMAP
1000
3000
3000
3000
2000
2000
27C0
2860
7060
6060
6040
40C0
4300
4C00
CC00
C410
8660
82C0
8380
ENDCHAR
STARTCHAR l
ENCODING 108
SWIDTH 600 0
DWIDTH 15 0
BBX 10 19 3 0
BITMAP
FC00
0400
0C00
0C00
0800
0800
0800
1800
1800
1800
1000
1000
3000
3080
30C0
2100
2600
2C00
3000
ENDCHAR
STARTCHAR m
ENCODING 109
SWIDTH 600 0
DWIDTH 15 0
BBX 13 13 1 0
BITMAP
2E70
7388
6108
6308
4308
4218
4218
C210
C210
8610
8610
8430
8430
ENDCHAR
STARTCHAR n
ENCODING 110
SWIDTH 600 0
DWIDTH 15 0
BBX 11 13 2 0
BITMAP
2780
28C0
7060
6060
6060
4060
4040
4040
C040
C0C0
C0C0
80C0
8080
ENDCHAR
STARTCHAR o
ENCODING 111
SWIDTH 600 0
DWIDTH 15 0
BBX 11 13 2 0
BITMAP
0F80
30C0
6060
4020
C020
C020
8020
8060
8060
8040
C0C0
6180
3E00
ENDCHAR
STARTCHAR p
ENCODING 112
SWIDTH 600 0
DWIDTH 15 0
BBX 12 18 1 -5
BITMAP
13C0
3430
3810
3010
3010
2010
2010
6010
6030
6020
6060
50C0
4F80
C000
C000
C000
8000
8000
ENDCHAR
STARTCHAR q
ENCODING 113
SWIDTH 600 0
DWIDTH 15 0
BBX 11 18 2 -5
BITMAP
1F20
30A0
6060
4060
C060
8060
8040
8040
80C0
80C0
81C0
C2C0
7C80
0080
0080
0180
0180
0180
ENDCHAR
STARTCHAR r
ENCODING 114
SWIDTH 600 0
DWIDTH 15 0
BBX 12 13 3 0
BITMAP
F9F0
0A00
0C00
1800
1800
1000
1000
1000
1000
3000
3000
2000
2000
ENDCHAR
STARTCHAR s
ENCODING 115
SWIDTH 600 0
DWIDTH 15 0
BBX 12 13 1 0
BITMAP
0FC0
1830
3010
3000
3000
1800
0FC0
0060
0020
0020
4020
E040
1F80
ENDCHAR
STARTCHAR t
ENCODING 116
SWIDTH 600 0
DWIDTH 15 0
BBX 12 17 2 0
BITMAP
0600
0400
0400
0C00
FFF0
0C00
0800
0800
0800
1800
1800
1800
1020
10C0
1300
3600
1800
ENDCHAR
STARTCHAR u
ENCODING 117
SWIDTH 600 0
DWIDTH 15 0
BBX 11 13 2 0
BITMAP
2020
6020
6060
6060
4060
4040
4040
C040
C0C0
C0C0
C3C0
6280
3C80
ENDCHAR
STARTCHAR v
ENCODING 118
SWIDTH 600 0
DWIDTH 15 0
BBX 11 13 2 0
BITMAP
F060
1020
1020
3020
3020
3020
2060
2060
2040
2080
6100
6600
7800
ENDCHAR
STARTCHAR w
ENCODING 119
SWIDTH 600 0
DWIDTH 15 0
BBX 13 13 1 0
BITMAP
2118
2108
2108
6108
6308
4308
4208
4208
4218
C210
C630
CA20
71C0
ENDCHAR
STARTCHAR x
ENCODING 120
SWIDTH 600 0
DWIDTH 15 0
BBX 15 13 0 0
BITMAP
0E3C
1B66
6146
0186
0186
0100
0100
0100
4300
C300
C50C
45B0
78E0
ENDCHAR
STARTCHAR y
ENCODING 121
SWIDTH 600 0
DWIDTH 15 0
BBX 12 18 1 -5
BITMAP
1010
3010
3030
3030
2030
2020
2020
6020
6060
6060
61E0
3140
1E40
00C0
00C0
0080
C300
7E00
ENDCHAR
STARTCHAR z
ENCODING 122
SWIDTH 600 0
DWIDTH 15 0
BBX 13 13 1 0
BITMAP
1F18
30F8
2030
2060
00C0
0180
0200
0C00
1820
3020
6030
FF30
C3E0
ENDCHAR
STARTCHAR braceleft
ENCODING 123
SWIDTH 600 0
DWIDTH 15 0
BBX 11 22 3 -3
BITMAP
07E0
0400
0400
0400
0400
0400
0600
0200
0200
0600
F800
0C00
0400
0400
0C00
1800
1000
3000
2000
2000
2000
3F00
ENDCHAR
STARTCHAR bar
ENCODING 124
SWIDTH 600 0
DWIDTH 15 0
BBX 5 22 5 -3
BITMAP
08
08
08
18
10
10
10
10
30
30
20
20
20
20
60
60
40
40
40
40
C0
C0
ENDCHAR
STARTCHAR braceright
ENCODING 125
SWIDTH 600 0
DWIDTH 15 0
BBX 12 22 1 -3
BITMAP
0FC0
00C0
00C0
0080
0080
0100
0200
0600
0400
0600
01F0
0600
0C00
0800
0C00
0400
0600
0200
0200
0600
0400
FC00
ENDCHAR
STARTCHAR asciitilde
ENCODING 126
SWIDTH 600 0
DWIDTH 15 0
BBX 13 3 1 6
BITMAP
3C08
6310
C1E0
ENDCHAR
ENDFONT
